<svg aria-hidden="true" style="position: absolute; width: 0; height: 0; overflow: hidden;" version="1.1" xmlns="http://www.w3.org/2000/svg" xmlns:xlink="http://www.w3.org/1999/xlink">
<defs>

<symbol id="icon-search" viewBox="0 0 15 15">
<path d="M14.535 12.765l-3.553-3.022c-0.367-0.331-0.76-0.482-1.077-0.468 0.839-0.982 1.345-2.257 1.345-3.65 0-3.107-2.518-5.625-5.625-5.625s-5.625 2.518-5.625 5.625 2.518 5.625 5.625 5.625c1.393 0 2.668-0.507 3.65-1.345-0.015 0.317 0.137 0.71 0.468 1.077l3.022 3.553c0.517 0.575 1.363 0.623 1.878 0.108s0.467-1.361-0.108-1.878zM5.625 9.375c-2.071 0-3.75-1.679-3.75-3.75s1.679-3.75 3.75-3.75 3.75 1.679 3.75 3.75-1.679 3.75-3.75 3.75z"></path>
</symbol>
</defs>
</svg>
